<?xml version="1.0" encoding="UTF-8"?><svg id="a" xmlns="http://www.w3.org/2000/svg" viewBox="0 0 3790.19 1023.02"><path d="M3225.04,395.83l265.13-271.48h-461.01l8.8-110.42h723.19l1.76,25.48-351.92,353.91c202.35,12.74,378.31,104.76,378.31,300.11,0,218.01-219.95,328.42-441.66,328.42H.94v-113.25s3227.06,0,3346.71,0c146.04,0,272.74-66.53,272.74-209.51,0-127.41-98.54-198.19-300.89-198.19-34.37,0-67.62,2.02-95.73,4.64"/><path d="M.94,618.37l140.88-29.16h0c16.89,77.39,81.73,116.08,194.51,116.08,51.47,0,91.07-9.91,118.77-29.73,27.71-19.82,41.56-44.41,41.56-73.77,0-21.35-6.29-41.08-18.86-59.18-12.58-18.1-39.49-32.31-80.75-42.6l-153.84-38.88c-52.66-13.34-91.57-28.49-116.71-45.46-25.15-16.96-45.3-40.89-60.42-71.77-15.13-30.88-22.69-63.85-22.69-98.93,0-69.77,26.72-125.71,80.16-167.84C176.98,35,245.36,13.93,328.67,13.93c69.16,0,130.95,14.68,185.38,44.03,54.42,29.36,89.1,70.91,104.04,124.66l-137.93,33.17h0c-21.22-59.09-70.73-88.64-148.54-88.64-45.19,0-79.68,9.15-103.45,27.45-23.78,18.3-35.66,41.56-35.66,69.77,0,44.6,37.33,75.87,111.99,93.78l136.75,33.17c82.91,20.21,138.52,50.04,166.81,89.49,28.29,39.46,42.44,83.01,42.44,130.66,0,76.63-29.77,136.96-89.3,180.99-59.53,44.03-136.66,66.05-231.35,66.05-79.78,0-149.63-16.2-209.55-48.61C60.37,737.51,20.58,686.99,.94,618.37Z"/><path d="M1723.09,818.52h-145V13.93h145V818.52Z"/><path d="M2365.57,818.52h-495.14V13.93h152.67V687.07h342.47v131.44Z"/><path d="M3008.04,818.52h-495.13V13.93h152.67V687.07h342.47v131.44Z"/><g><polygon points="942.84 230.33 942.84 13.93 797.84 13.93 797.84 424.24 942.84 230.33"/><path d="M1205.73,278.59L1396.71,13.93h-146.77l-206.5,280.8h0l-60.52,82.3s-40.05,53.51-40.07,53.53l-145.01,195.81v192.15h145v-203.36l155.61-206.3,169.76,409.66h162.1l-224.58-539.93Z"/></g></svg>